<mxfile host="localhost" modified="2020-05-22T09:12:38.557Z" agent="5.0 (Windows NT 10.0; Win64; x64) AppleWebKit/537.36 (KHTML, like Gecko) Code/1.45.1 Chrome/78.0.3904.130 Electron/7.2.4 Safari/537.36" etag="FclumCASGE0QozgE3QGA" version="13.0.9">
    <diagram id="6hGFLwfOUW9BJ-s0fimq" name="Page-1">
        <mxGraphModel dx="956" dy="360" grid="1" gridSize="10" guides="1" tooltips="1" connect="1" arrows="1" fold="1" page="1" pageScale="1" pageWidth="827" pageHeight="1169" background="#4D4D4D" math="0" shadow="1">
            <root>
                <mxCell id="0"/>
                <mxCell id="1" parent="0"/>
                <mxCell id="23" value="" style="edgeStyle=none;rounded=0;orthogonalLoop=1;jettySize=auto;html=1;" edge="1" parent="1" source="2" target="22">
                    <mxGeometry relative="1" as="geometry"/>
                </mxCell>
                <mxCell id="2" value="&lt;font style=&quot;font-size: 14px&quot;&gt;React&lt;/font&gt;" style="rounded=0;whiteSpace=wrap;html=1;fontFamily=等距更纱黑体 T SC;labelBackgroundColor=none;" vertex="1" parent="1">
                    <mxGeometry x="374" width="80" height="40" as="geometry"/>
                </mxCell>
                <mxCell id="35" value="" style="edgeStyle=orthogonalEdgeStyle;rounded=0;orthogonalLoop=1;jettySize=auto;html=1;" edge="1" parent="1" source="22" target="34">
                    <mxGeometry relative="1" as="geometry"/>
                </mxCell>
                <mxCell id="37" value="" style="edgeStyle=orthogonalEdgeStyle;rounded=0;orthogonalLoop=1;jettySize=auto;html=1;" edge="1" parent="1" source="22" target="36">
                    <mxGeometry relative="1" as="geometry"/>
                </mxCell>
                <mxCell id="22" value="&lt;span style=&quot;font-size: 14px&quot;&gt;React hook&lt;/span&gt;" style="rounded=0;whiteSpace=wrap;html=1;fontFamily=等距更纱黑体 T SC;labelBackgroundColor=none;" vertex="1" parent="1">
                    <mxGeometry x="374" y="100" width="80" height="40" as="geometry"/>
                </mxCell>
                <mxCell id="36" value="&lt;span style=&quot;font-size: 14px&quot;&gt;useEffect&lt;/span&gt;" style="rounded=0;whiteSpace=wrap;html=1;fontFamily=等距更纱黑体 T SC;labelBackgroundColor=none;" vertex="1" parent="1">
                    <mxGeometry x="420" y="180" width="80" height="40" as="geometry"/>
                </mxCell>
                <mxCell id="55" value="" style="edgeStyle=orthogonalEdgeStyle;rounded=0;orthogonalLoop=1;jettySize=auto;html=1;shape=link;" edge="1" parent="1" source="34">
                    <mxGeometry relative="1" as="geometry">
                        <mxPoint x="289.9999999999998" y="200" as="targetPoint"/>
                    </mxGeometry>
                </mxCell>
                <mxCell id="34" value="&lt;span style=&quot;font-size: 14px&quot;&gt;useState&lt;/span&gt;" style="rounded=0;whiteSpace=wrap;html=1;fontFamily=等距更纱黑体 T SC;labelBackgroundColor=none;" vertex="1" parent="1">
                    <mxGeometry x="330" y="180" width="80" height="40" as="geometry"/>
                </mxCell>
                <mxCell id="64" style="edgeStyle=orthogonalEdgeStyle;shape=link;rounded=0;orthogonalLoop=1;jettySize=auto;html=1;exitX=1;exitY=0.5;exitDx=0;exitDy=0;" edge="1" parent="1" source="63">
                    <mxGeometry relative="1" as="geometry">
                        <mxPoint x="290" y="200" as="targetPoint"/>
                    </mxGeometry>
                </mxCell>
                <mxCell id="63" value="&amp;nbsp; const [cont, setCont] = useState(0)" style="html=1;whiteSpace=wrap;comic=1;strokeWidth=2;fontFamily=Comic Sans MS;fontStyle=1;shadow=1;fillColor=none;gradientColor=none;align=left;" vertex="1" parent="1">
                    <mxGeometry x="20" y="170" width="260" height="60" as="geometry"/>
                </mxCell>
            </root>
        </mxGraphModel>
    </diagram>
</mxfile>